<svg width="18" height="18" viewBox="0 0 18 18" fill="none" xmlns="http://www.w3.org/2000/svg">
<path d="M8.99984 17.3333C4.39734 17.3333 0.666504 13.6025 0.666504 8.99996C0.666504 4.39746 4.39734 0.666626 8.99984 0.666626C13.6023 0.666626 17.3332 4.39746 17.3332 8.99996C17.3332 13.6025 13.6023 17.3333 8.99984 17.3333ZM8.99984 15.6666C10.7679 15.6666 12.4636 14.9642 13.7139 13.714C14.9641 12.4638 15.6665 10.7681 15.6665 8.99996C15.6665 7.23185 14.9641 5.53616 13.7139 4.28591C12.4636 3.03567 10.7679 2.33329 8.99984 2.33329C7.23173 2.33329 5.53604 3.03567 4.28579 4.28591C3.03555 5.53616 2.33317 7.23185 2.33317 8.99996C2.33317 10.7681 3.03555 12.4638 4.28579 13.714C5.53604 14.9642 7.23173 15.6666 8.99984 15.6666ZM9.83317 8.99996H13.1665V10.6666H8.1665V4.83329H9.83317V8.99996Z" fill="#6D787E"/>
</svg>
